<svg t="1675160087210" class="icon" viewBox="0 0 1024 1024" version="1.1" xmlns="http://www.w3.org/2000/svg" p-id="1430" width="32" height="32"><path d="M510.999207 64.425312c-245.292636 0-445.986517 200.693882-445.986518 445.986517 0 245.293659 200.693882 445.98754 445.986518 445.98754 245.293659 0 445.98754-200.693882 445.98754-445.98754 0-245.292636-200.693882-445.986517-445.98754-445.986517z m0 802.776549c-196.234313 0-356.789009-160.554696-356.78901-356.790032 0-196.234313 160.554696-356.789009 356.78901-356.789009 196.235336 0 356.790032 160.554696 356.790032 356.789009S707.235566 867.201861 510.999207 867.201861z" p-id="1431" fill="#d81e06"></path><path d="M765.661234 511.963161c0 23.913643-18.754133 43.300178-41.88597 43.300178H305.422108c-23.134907 0-41.886993-19.386536-41.886993-43.300178 0-23.915689 18.754133-43.300178 41.886993-43.300179h418.35418c23.130813 0 41.884946 19.384489 41.884946 43.300179z" p-id="1432" fill="#d81e06"></path></svg>