<svg t="1619766807627" class="icon" viewBox="0 0 2450 1024" version="1.1" xmlns="http://www.w3.org/2000/svg" p-id="7009" width="200" height="200"><path d="M2045.184 804.571429h58.514286l101.668571 103.387428 20.48-103.387428H2304l-32.621714 185.673142h-57.307429l-102.034286-101.12-20.736 101.12H2011.428571zM1950.354286 924.269714l33.938285 36.205715c-51.565714 33.792-131.730286 40.118857-183.515428 12.178285-62.208-33.426286-57.526857-108.982857-3.584-142.518857 57.124571-35.510857 153.819429-35.218286 207.140571 8.411429l-48.164571 28.928c-23.771429-21.650286-67.657143-26.185143-100.571429-6.290286-27.684571 17.810286-32.914286 59.245714 5.266286 75.995429 27.428571 11.776 68.132571 5.229714 89.453714-12.909715M1621.869714 914.285714H1718.857143l-12.726857 75.739429H1609.142857zM1425.627429 804.571429H1645.714286l-7.716572 39.68h-130.596571l-9.362286 49.993142h119.076572l-7.204572 37.302858h-119.113143l-11.556571 58.697142H1389.714286zM1304.027429 897.718857c-4.169143 24.868571-17.152 38.985143-37.595429 45.714286-12.982857 4.315429-28.598857 5.449143-47.36 4.681143l17.334857-101.485715c5.229714-0.365714 10.166857-0.365714 14.994286-0.365714 35.584 0 59.574857 8.594286 52.626286 51.456M1255.277714 804.571429H1165.165714L1133.714286 990.244571h97.865143c14.006857 0 27.904-0.475429 41.728-2.011428 53.504-5.924571 101.668571-27.172571 109.568-91.648 10.203429-85.723429-69.046857-92.013714-127.634286-92.013714M880.64 804.571429h86.272l33.865143 50.724571L1055.341714 804.571429h85.467429l-96.694857 91.611428 72.667428 94.061714H1028.754286l-40.448-53.942857-59.794286 53.942857H841.142857l103.862857-96.768z" fill="#FCA516" p-id="7010"></path><path d="M340.077714 750.518857h104.228572l28.416-257.828571h-104.155429l-28.525714 257.828571z m-283.428571-257.828571L0 750.518857h104.228571l56.502858-257.828571H56.612571zM2434.194286 237.568l13.750857-84.187429h-306.285714l9.691428-61.805714h-156.342857l-9.764571 61.805714H1206.052571l25.161143-60.525714h-152.905143l-25.197714 60.525714H710.582857c2.413714-14.482286 4.022857-24.064 4.534857-27.574857 5.558857-33.170286 18.578286-40.338286 43.227429-40.338285h191.049143L961.462857 11.776h-290.596571c-43.446857 0-67.803429 21.248-76.288 74.422857-1.718857 10.825143-12.141714 75.081143-25.929143 159.817143h-95.963429l30.573715-75.702857h-124.525715l-20.589714 51.163428H266.130286L261.851429 170.349714H144.969143l6.363428 75.666286H54.674286L43.300571 315.977143h185.526858l-9.033143 54.601143H61.988571l-11.337142 69.961143h157.622857l-50.870857 309.979428H286.354286l50.980571-309.979428h157.147429l11.446857-69.961143H348.818286l8.96-54.601143h199.570285c-31.232 192.292571-70.692571 434.541714-70.692571 434.541714h126.500571l83.748572-512.950857h64.073143l-123.757715 764.781714h124.781715l123.867428-764.781714h132.388572l-86.820572 209.334857h298.057143l-49.590857 303.616h163.84l49.664-303.616h275.382857l19.053714-84.443428h-280.685714l11.227429-68.973715h-163.876572l-11.227428 68.973715h-123.904l51.748571-124.891429h601.014857l-112.347428 512.950857h161.792l75.337143-343.881143h295.643428s-30.244571 202.313143-33.645714 220.562286c-4.534857 24.137143-13.531429 40.740571-48.713143 40.740571h-112.64l-13.494857 82.578286h238.884571c41.910857 0 86.674286-18.212571 95.744-76.763428 8.228571-54.125714 56.100571-351.268571 56.100572-351.268572H1915.318857l18.541714-84.918857H2434.194286z m-2046.756572-103.131429h156.964572l11.410285-69.961142H399.725714l11.337143-64.329143H282.075429l-11.337143 64.365714H111.908571l-11.300571 69.924571H387.474286z m1077.76 368.566858l44.507429 247.515428h150.052571l-44.507428-247.515428h-150.052572z m-591.067428 247.515428h153.234285l101.046858-247.515428h-153.161143l-101.12 247.515428z" fill="#FFFFFF" p-id="7011" data-spm-anchor-id="a313x.7781069.0.i0"></path></svg>